<svg width="42" height="19" viewBox="0 0 42 19" fill="none" xmlns="http://www.w3.org/2000/svg">
<path d="M18 9.09619C18 14.0668 13.9706 18.0962 9 18.0962C4.02944 18.0962 0 14.0668 0 9.09619C0 4.12563 4.02944 0.0961914 9 0.0961914C13.9706 0.0961914 18 4.12563 18 9.09619Z" fill="#4E5986"/>
<path fill-rule="evenodd" clip-rule="evenodd" d="M16.1536 16.5298C18.0746 14.644 19.2693 11.9985 19.2693 9.06933C19.2693 6.15648 18.0879 3.52414 16.1856 1.64042C17.6007 0.665624 19.308 0.0961914 21.1461 0.0961914C26.0358 0.0961914 29.9997 4.12563 29.9997 9.09619C29.9997 14.0668 26.0358 18.0962 21.1461 18.0962C19.2941 18.0962 17.5749 17.5181 16.1536 16.5298Z" fill="#8969AC"/>
<path fill-rule="evenodd" clip-rule="evenodd" d="M25.8457 18.0962C28.9511 16.3008 31.0392 12.9546 31.0392 9.12306C31.0392 7.12039 30.4687 5.25031 29.4807 3.66497L31.5521 0.0961914L41.9995 18.0962H25.8457Z" fill="#FDD655"/>
</svg>
