<svg width="24" height="25" viewBox="0 0 24 25" fill="none" xmlns="http://www.w3.org/2000/svg">
<g clip-path="url(#clip0_2791_7208)">
<g clip-path="url(#clip1_2791_7208)">
<path fill-rule="evenodd" clip-rule="evenodd" d="M5.63617 5.86383C5.92907 5.57093 6.40394 5.57093 6.69683 5.86383L18.3641 17.5311C18.657 17.824 18.657 18.2989 18.3641 18.5917C18.0712 18.8846 17.5963 18.8846 17.3034 18.5917L5.63617 6.92449C5.34328 6.63159 5.34328 6.15672 5.63617 5.86383Z" fill="#505458"/>
<path fill-rule="evenodd" clip-rule="evenodd" d="M18.3638 5.86383C18.6567 6.15672 18.6567 6.63159 18.3638 6.92449L6.69656 18.5917C6.40367 18.8846 5.9288 18.8846 5.6359 18.5917C5.34301 18.2989 5.34301 17.824 5.6359 17.5311L17.3032 5.86383C17.5961 5.57093 18.0709 5.57093 18.3638 5.86383Z" fill="#505458"/>
</g>
</g>
<defs>
<clipPath id="clip0_2791_7208">
<rect width="24" height="24" fill="white" transform="translate(0 0.5)"/>
</clipPath>
<clipPath id="clip1_2791_7208">
<rect width="18" height="18" fill="white" transform="translate(12 -0.5) rotate(45)"/>
</clipPath>
</defs>
</svg>
