<?xml version="1.0" encoding="UTF-8"?>
<svg width="26" height="23" id="Layer_2" data-name="Layer 2" xmlns="http://www.w3.org/2000/svg" viewBox="0 0 141.56 121.42">
  <g id="Layer_1-2" data-name="Layer 1">
    <g>
      <path d="m30.89,48.45c-2.69,0-4.87,2.18-4.87,4.87s2.18,4.88,4.87,4.88,4.87-2.18,4.87-4.88-2.18-4.87-4.87-4.87Z"/>
      <path d="m79.04,47.94c-2.9,0-5.25,2.35-5.25,5.25s2.35,5.25,5.25,5.25,5.25-2.35,5.25-5.25-2.35-5.25-5.25-5.25Z"/>
      <path d="m86.34,99.41h36.29c10.46,0,18.94-8.48,18.94-18.94V18.94c0-10.46-8.48-18.94-18.94-18.94H18.94C8.48,0,0,8.48,0,18.94v61.54c0,10.46,8.48,18.94,18.94,18.94h36.62m-11.08-45.01c-.06,11.25-11.69,11.57-11.69,11.57-4.5,0-7.04-2.98-7.04-2.98v2.03h-8.47V30.08s-.04-.01,0-.02v.02c.53.08,8.47-.02,8.47-.02v13.36c1.99-3.4,7.75-3.34,7.75-3.34,12.54,1.17,10.97,14.32,10.97,14.32Zm14.91-13.24v23.92h-8.29v-23.68c0-3.22-4-4.12-4-4.12v-8.35c13.24.54,12.29,12.23,12.29,12.23Zm19.65,24.83c-7.68,0-13.9-5.73-13.9-12.79s6.22-12.79,13.9-12.79,13.9,5.73,13.9,12.79-6.22,12.79-13.9,12.79Zm45.42,0s.12,12.15-12.23,12.15h-3.76v-7.87h2.27s5.19.48,5.13-7.52c0,0-1.01,3.24-8.29,3.24,0,0-10.32-.74-10.32-10.81v-3.82s.24-10.44,11.57-11.27c0,0,4.47-.48,7.22,3.22v-2.56h8.41v25.25Z"/>
      <path d="m111.28,48.06c-2.83,0-5.13,2.3-5.13,5.13s2.3,5.13,5.13,5.13,5.13-2.3,5.13-5.13-2.3-5.13-5.13-5.13Z"/>
      <path d="m70.34,92.91h13.41c2.83,0,4.6,2.86,3.19,5.15l-6.7,10.82-6.7,10.82c-1.42,2.29-4.96,2.29-6.37,0l-6.7-10.82-6.7-10.82c-1.42-2.29.35-5.15,3.19-5.15h13.41Z"/>
    </g>
  </g>
</svg>