<svg width="42" height="42" viewBox="0 0 42 42" fill="none" xmlns="http://www.w3.org/2000/svg">
<g clip-path="url(#clip0_61_34)">
<path d="M18 21.0962C18 26.0668 13.9706 30.0962 9 30.0962C4.02944 30.0962 0 26.0668 0 21.0962C0 16.1256 4.02944 12.0962 9 12.0962C13.9706 12.0962 18 16.1256 18 21.0962Z" fill="#4E5986"/>
<path fill-rule="evenodd" clip-rule="evenodd" d="M16.1538 28.5298C18.0748 26.644 19.2695 23.9985 19.2695 21.0693C19.2695 18.1565 18.0881 15.5241 16.1858 13.6404C17.6009 12.6656 19.3082 12.0962 21.1463 12.0962C26.036 12.0962 29.9999 16.1256 29.9999 21.0962C29.9999 26.0668 26.036 30.0962 21.1463 30.0962C19.2943 30.0962 17.5751 29.5181 16.1538 28.5298Z" fill="#8969AC"/>
<path fill-rule="evenodd" clip-rule="evenodd" d="M25.8457 30.0962C28.9511 28.3008 31.0392 24.9546 31.0392 21.1231C31.0392 19.1204 30.4687 17.2503 29.4807 15.665L31.5521 12.0962L41.9995 30.0962H25.8457Z" fill="#FDD655"/>
</g>
<defs>
<clipPath id="clip0_61_34">
<rect width="42" height="19" fill="white" transform="translate(0 12)"/>
</clipPath>
</defs>
</svg>
