<svg width="42" height="19" viewBox="0 0 42 19" fill="none" xmlns="http://www.w3.org/2000/svg">
<path d="M18 9.71411C18 14.6847 13.9706 18.7141 9 18.7141C4.02944 18.7141 0 14.6847 0 9.71411C0 4.74355 4.02944 0.714111 9 0.714111C13.9706 0.714111 18 4.74355 18 9.71411Z" fill="#445FB9"/>
<path fill-rule="evenodd" clip-rule="evenodd" d="M16.1536 17.1477C18.0746 15.2619 19.2693 12.6164 19.2693 9.68725C19.2693 6.7744 18.0879 4.14206 16.1856 2.25834C17.6007 1.28354 19.308 0.714111 21.1461 0.714111C26.0358 0.714111 29.9997 4.74355 29.9997 9.71411C29.9997 14.6847 26.0358 18.7141 21.1461 18.7141C19.2941 18.7141 17.5749 18.136 16.1536 17.1477Z" fill="#946DF3"/>
<path fill-rule="evenodd" clip-rule="evenodd" d="M25.8457 18.7141C28.9511 16.9187 31.0392 13.5725 31.0392 9.74098C31.0392 7.73831 30.4687 5.86823 29.4807 4.28289L31.5521 0.714111L41.9995 18.7141H25.8457Z" fill="#FDD655"/>
</svg>
